HIERARCHY
ROOT character_A_root
{
	OFFSET 0.000000 0.000000 0.000000
	CHANNELS 6 Xposition Yposition Zposition Xrotation Yrotation Zrotation
	JOINT character_A_pelvis
	{
		OFFSET 0.000000 0.000000 0.000000
		CHANNELS 3 Xrotation Yrotation Zrotation
		JOINT character_A_spine
		{
			OFFSET -0.006400 0.538076 0.000000
			CHANNELS 3 Xrotation Yrotation Zrotation
			JOINT character_A_head
			{
				OFFSET 0.012744 0.245383 0.000000
				CHANNELS 3 Xrotation Yrotation Zrotation
				JOINT character_A_nose
				{
					OFFSET -0.008787 -0.131621 -0.002605
					CHANNELS 3 Xrotation Yrotation Zrotation
					End Site
					{
						OFFSET 0.000000 0.050000 0.000000
					}
				}
			}
			JOINT character_A_left_shoulder
			{
				OFFSET 0.108057 -0.069769 0.094471
				CHANNELS 3 Xrotation Yrotation Zrotation
				JOINT character_A_left_elbow
				{
					OFFSET 0.031628 -0.239596 -0.139088
					CHANNELS 3 Xrotation Yrotation Zrotation
					JOINT character_A_left_wrist
					{
						OFFSET 0.010597 -0.101834 -0.186326
						CHANNELS 3 Xrotation Yrotation Zrotation
						End Site
						{
							OFFSET 0.000000 0.050000 0.000000
						}
					}
				}
			}
			JOINT character_A_right_shoulder
			{
				OFFSET -0.114595 -0.059038 0.102763
				CHANNELS 3 Xrotation Yrotation Zrotation
				JOINT character_A_right_elbow
				{
					OFFSET -0.054650 -0.246550 -0.079184
					CHANNELS 3 Xrotation Yrotation Zrotation
					JOINT character_A_right_wrist
					{
						OFFSET -0.039546 -0.120930 -0.167408
						CHANNELS 3 Xrotation Yrotation Zrotation
						End Site
						{
							OFFSET 0.000000 0.050000 0.000000
						}
					}
				}
			}
		}
		JOINT character_A_left_hip
		{
			OFFSET 0.064495 -0.018473 0.101805
			CHANNELS 3 Xrotation Yrotation Zrotation
			JOINT character_A_left_knee
			{
				OFFSET -0.013415 -0.404926 0.097567
				CHANNELS 3 Xrotation Yrotation Zrotation
				JOINT character_A_left_ankle
				{
					OFFSET -0.033827 -0.357830 0.207383
					CHANNELS 3 Xrotation Yrotation Zrotation
					JOINT character_A_left_big_toe
					{
						OFFSET -0.008355 -0.113888 0.066374
						CHANNELS 3 Xrotation Yrotation Zrotation
						End Site
						{
							OFFSET 0.000000 0.050000 0.000000
						}
					}
					JOINT character_A_left_small_toe
					{
						OFFSET 0.019861 -0.105049 0.045203
						CHANNELS 3 Xrotation Yrotation Zrotation
						End Site
						{
							OFFSET 0.000000 0.050000 0.000000
						}
					}
					JOINT character_A_left_heel
					{
						OFFSET -0.015740 -0.054451 0.041248
						CHANNELS 3 Xrotation Yrotation Zrotation
						End Site
						{
							OFFSET 0.000000 0.050000 0.000000
						}
					}
				}
			}
		}
		JOINT character_A_right_hip
		{
			OFFSET -0.060818 -0.017714 0.289385
			CHANNELS 3 Xrotation Yrotation Zrotation
			JOINT character_A_right_knee
			{
				OFFSET 0.024497 -0.400024 0.102706
				CHANNELS 3 Xrotation Yrotation Zrotation
				JOINT character_A_right_ankle
				{
					OFFSET 0.016037 -0.354408 0.210815
					CHANNELS 3 Xrotation Yrotation Zrotation
					JOINT character_A_right_big_toe
					{
						OFFSET -0.000881 -0.112993 0.055364
						CHANNELS 3 Xrotation Yrotation Zrotation
						End Site
						{
							OFFSET 0.000000 0.050000 0.000000
						}
					}
					JOINT character_A_right_small_toe
					{
						OFFSET -0.021559 -0.104872 0.042888
						CHANNELS 3 Xrotation Yrotation Zrotation
						End Site
						{
							OFFSET 0.000000 0.050000 0.000000
						}
					}
					JOINT character_A_right_heel
					{
						OFFSET 0.008712 -0.057795 0.038858
						CHANNELS 3 Xrotation Yrotation Zrotation
						End Site
						{
							OFFSET 0.000000 0.050000 0.000000
						}
					}
				}
			}
		}
	}
}
MOTION
Frames: 15
Frame Time: 0.03333333
0.452874 -0.266552 3.853752 0.000000 0.000000 0.000000 -2.133293 3.945957 -3.414270 4.107053 -4.256153 11.519211 -2.352436 1.674574 -33.534891 0.000000 0.000000 -0.000000 -3.165717 4.544333 -14.114875 26.298023 41.998208 -29.930906 0.000000 0.000000 -0.000000 21.581096 -6.619775 -16.360607 -11.823535 26.771469 -15.955708 -0.000000 0.000000 0.000000 12.795083 -2.958881 5.657181 7.328608 10.444379 14.319455 90.845723 -5.355575 -160.593240 -0.000000 0.000000 -0.000000 -0.000000 0.000000 -0.000000 -0.000000 0.000000 -0.000000 14.445901 -1.647558 5.773829 -2.159825 4.415744 5.680393 8.718057 27.575677 -49.073273 0.000000 0.000000 0.000000 0.000000 0.000000 0.000000 0.000000 0.000000 0.000000
0.453472 -0.283412 3.800073 0.000000 0.000000 0.000000 -2.046473 3.552478 -2.204497 3.652299 -3.765518 10.504496 -2.030936 1.534577 -37.843519 -0.000000 0.000000 -0.000000 -2.491790 -0.601005 -6.073395 27.466412 39.529156 -36.689499 -0.000000 0.000000 -0.000000 19.363101 -5.413936 -20.139520 -19.251397 32.255456 -13.955071 -0.000000 0.000000 0.000000 6.978471 -4.484462 -1.105855 8.051806 11.091030 17.978213 93.929004 -2.692993 -153.520957 -0.000000 0.000000 -0.000000 -0.000000 0.000000 -0.000000 -0.000000 0.000000 -0.000000 12.392904 -1.087077 6.461030 -2.181680 5.330231 6.042448 7.944158 21.780804 -46.988629 -0.000000 0.000000 -0.000000 -0.000000 0.000000 -0.000000 -0.000000 0.000000 -0.000000
0.453482 -0.305743 3.809919 0.000000 0.000000 0.000000 -3.716571 2.770878 0.713633 4.850964 -3.162787 8.179384 -1.623078 1.576025 -42.910044 0.000000 0.000000 -0.000000 -1.895382 -6.300061 3.031859 25.858091 37.057396 -42.168448 -0.000000 0.000000 -0.000000 15.685237 -3.248597 -23.584319 -26.113413 37.502440 -11.589597 -0.000000 0.000000 -0.000000 8.668728 -6.759526 -13.209011 5.561567 13.836372 25.686617 100.087572 -8.789693 -151.798461 0.000000 0.000000 -0.000000 0.000000 0.000000 -0.000000 0.000000 0.000000 -0.000000 14.549444 -0.141441 5.628937 -3.682273 6.532638 6.726562 10.382206 26.551944 -48.346219 0.000000 0.000000 0.000000 0.000000 0.000000 0.000000 0.000000 0.000000 0.000000
0.451467 -0.324688 3.806276 0.000000 0.000000 0.000000 -4.830906 1.908985 3.212004 6.022366 -2.759380 6.402187 -1.692610 1.825244 -45.243799 -0.000000 0.000000 -0.000000 0.315512 -10.845436 11.223087 17.007001 35.197650 -42.688597 -0.000000 0.000000 -0.000000 13.075704 -1.615057 -25.876474 -27.398411 35.216865 -7.941213 -0.000000 0.000000 -0.000000 10.276822 -9.680838 -26.068746 1.209437 15.187975 33.326608 100.327796 -8.870671 -150.538728 0.000000 0.000000 -0.000000 0.000000 0.000000 -0.000000 0.000000 0.000000 -0.000000 15.896347 0.708030 4.916224 -3.598974 8.403100 8.346075 11.780765 30.551317 -49.988577 -0.000000 0.000000 0.000000 -0.000000 0.000000 0.000000 -0.000000 0.000000 0.000000
0.449184 -0.338307 3.801052 0.000000 0.000000 0.000000 -5.456204 1.212677 5.130403 6.713535 -2.490239 4.919597 -1.755573 2.020376 -46.123905 0.000000 0.000000 -0.000000 2.214957 -14.041681 17.641787 8.613153 34.422055 -41.554610 -0.000000 0.000000 0.000000 10.980993 -0.234441 -27.099024 -26.850125 32.574584 -5.494291 -0.000000 0.000000 -0.000000 10.222277 -11.945471 -36.446466 -1.564348 15.415120 38.845026 103.318148 -9.422908 -150.475690 0.000000 0.000000 -0.000000 0.000000 0.000000 -0.000000 0.000000 0.000000 -0.000000 16.665279 1.330108 4.353822 -2.309439 10.219465 9.988595 12.959526 32.469024 -52.378701 -0.000000 0.000000 -0.000000 -0.000000 0.000000 -0.000000 -0.000000 0.000000 -0.000000
0.441238 -0.345969 3.773652 0.000000 0.000000 0.000000 -5.478865 0.637055 6.398176 6.984638 -2.358218 3.402310 -1.997503 2.309403 -45.604150 0.000000 0.000000 0.000000 1.497351 -16.617016 22.761090 2.239375 32.945154 -38.692247 -0.000000 0.000000 0.000000 10.546791 0.002456 -26.049944 -25.086383 27.457591 -3.360645 -0.000000 0.000000 0.000000 9.435534 -13.215256 -43.446875 -0.371616 15.642062 40.037040 100.630527 -5.102675 -146.023062 -0.000000 0.000000 0.000000 -0.000000 0.000000 0.000000 -0.000000 0.000000 0.000000 16.405197 2.169610 4.828650 -0.275581 11.722910 10.955339 13.368904 33.739975 -52.765435 -0.000000 0.000000 0.000000 -0.000000 0.000000 0.000000 -0.000000 0.000000 0.000000
0.426473 -0.350802 3.710888 0.000000 0.000000 0.000000 -4.785019 -0.187032 6.829469 6.479698 -1.728285 2.197987 -2.126877 2.500049 -44.819657 0.000000 0.000000 0.000000 1.697512 -17.222377 25.008587 -6.700504 28.376690 -31.902383 -0.000000 0.000000 0.000000 12.633583 -1.395529 -22.985436 -25.270171 21.327187 -1.217513 -0.000000 0.000000 0.000000 8.568048 -13.219572 -46.631257 4.604578 17.407368 38.002557 96.963231 -1.101612 -142.892346 -0.000000 0.000000 0.000000 -0.000000 0.000000 0.000000 -0.000000 0.000000 0.000000 14.747629 3.861071 7.001104 2.636743 12.271851 10.289403 13.217764 35.881020 -52.572798 -0.000000 0.000000 0.000000 -0.000000 0.000000 0.000000 -0.000000 0.000000 0.000000
0.403112 -0.356035 3.647482 0.000000 0.000000 0.000000 -4.177620 -0.310586 6.760210 5.770767 -1.511317 1.387043 -2.021100 2.461573 -44.755097 0.000000 0.000000 0.000000 0.673527 -17.227048 25.049902 -13.921440 21.449213 -24.769564 -0.000000 0.000000 0.000000 14.284383 -2.581946 -18.969325 -22.967065 14.891896 0.497430 -0.000000 0.000000 -0.000000 8.377342 -13.302813 -46.766885 4.725946 15.890915 36.204981 94.816877 5.020316 -141.739603 -0.000000 0.000000 -0.000000 -0.000000 0.000000 -0.000000 -0.000000 0.000000 -0.000000 13.476166 4.730896 9.088832 2.435194 13.273982 10.899726 6.926268 34.416131 -46.030077 0.000000 0.000000 0.000000 0.000000 0.000000 0.000000 0.000000 0.000000 0.000000
0.372164 -0.359279 3.623997 0.000000 0.000000 0.000000 -4.276100 -0.280738 6.934568 5.470933 -1.674953 0.446859 -1.661118 2.537604 -44.081517 -0.000000 0.000000 -0.000000 -2.211941 -16.947559 23.456853 -17.013096 13.293725 -19.264314 0.000000 0.000000 -0.000000 14.895922 -3.025423 -14.627566 -20.377877 10.179109 1.149344 -0.000000 0.000000 0.000000 9.253234 -13.259090 -45.322473 4.580637 15.057865 34.759062 97.782351 9.820562 -138.315508 0.000000 0.000000 -0.000000 0.000000 0.000000 -0.000000 0.000000 0.000000 -0.000000 13.556379 4.505423 8.517298 1.635411 16.050782 15.110057 -3.209214 19.867623 -28.017776 0.000000 0.000000 0.000000 0.000000 0.000000 0.000000 0.000000 0.000000 0.000000
0.339541 -0.363230 3.616638 0.000000 0.000000 0.000000 -5.839139 -0.174096 7.854584 6.003491 -2.077643 -0.642529 -0.702393 2.535905 -43.621385 0.000000 0.000000 0.000000 -6.960136 -16.871844 20.447567 -16.786070 6.231485 -15.485072 0.000000 0.000000 0.000000 14.312472 -3.006746 -10.838129 -18.419946 7.340879 0.780730 -0.000000 0.000000 0.000000 11.760894 -13.261206 -43.121257 4.119222 14.492170 33.331886 101.684406 11.348421 -136.895638 -0.000000 0.000000 -0.000000 -0.000000 0.000000 -0.000000 -0.000000 0.000000 -0.000000 15.709116 3.216702 5.409091 -2.165381 18.640160 20.651790 -4.266567 6.176000 -17.129358 -0.000000 0.000000 -0.000000 -0.000000 0.000000 -0.000000 -0.000000 0.000000 -0.000000
0.313271 -0.444482 3.619710 0.000000 0.000000 0.000000 -6.982280 0.004033 8.494550 6.390630 -2.573256 -1.430188 -0.033511 2.627066 -42.854984 -0.000000 0.000000 0.000000 -10.809311 -16.410791 17.954185 -15.943959 1.166174 -13.084831 -0.000000 0.000000 -0.000000 13.098001 -2.765861 -7.651752 -16.933972 5.893635 -0.205252 -0.000000 0.000000 0.000000 13.632387 -13.290951 -41.174837 3.905953 14.497309 32.521389 106.155579 10.692970 -136.788389 0.000000 0.000000 0.000000 0.000000 0.000000 0.000000 0.000000 0.000000 0.000000 17.289937 1.706821 2.006914 -4.611979 21.409847 27.018173 -4.118006 -1.939553 -12.181482 0.000000 0.000000 0.000000 0.000000 0.000000 0.000000 0.000000 0.000000 0.000000
0.286893 -0.367840 3.639592 0.000000 0.000000 0.000000 -7.218352 0.439321 8.723851 6.549576 -2.957278 -1.747379 -0.046093 2.516376 -42.337656 -0.000000 0.000000 -0.000000 -13.527883 -15.288277 15.273200 -16.186336 -2.603822 -10.822758 0.000000 0.000000 -0.000000 10.095963 -2.529020 -4.267308 -16.583489 6.657773 -2.351983 -0.000000 0.000000 0.000000 14.636849 -13.263010 -38.635726 5.398506 15.956463 32.002921 105.147166 7.123359 -138.811813 -0.000000 0.000000 -0.000000 -0.000000 0.000000 -0.000000 -0.000000 0.000000 -0.000000 17.879251 0.113340 -1.089671 -12.133241 20.905368 31.530577 0.237214 -10.466602 -7.992391 0.000000 0.000000 -0.000000 0.000000 0.000000 -0.000000 0.000000 0.000000 -0.000000
0.263302 -0.368483 3.699363 0.000000 0.000000 0.000000 -6.703956 0.409984 8.903951 6.789225 -2.504661 -2.052381 -0.755656 2.145444 -43.524906 -0.000000 0.000000 -0.000000 -13.359689 -13.035621 12.144079 -21.411384 -5.359423 -7.870219 -0.000000 0.000000 0.000000 5.134362 -2.587976 -0.222335 -15.951082 8.954363 -5.571480 -0.000000 0.000000 -0.000000 15.085112 -12.428608 -35.449654 2.593820 14.912432 31.596203 111.138678 2.153145 -143.608468 0.000000 0.000000 0.000000 0.000000 0.000000 0.000000 0.000000 0.000000 0.000000 17.452702 -1.573463 -6.105575 -22.401219 16.492759 34.002411 12.733123 -10.002540 -8.185238 -0.000000 0.000000 -0.000000 -0.000000 0.000000 -0.000000 -0.000000 0.000000 -0.000000
0.238928 -0.369302 3.772255 0.000000 0.000000 0.000000 -6.270585 0.617779 9.399633 6.145017 -2.167636 -2.505681 -0.538022 1.642364 -44.731433 -0.000000 0.000000 -0.000000 -14.035887 -11.401666 8.899874 -23.684505 -6.433062 -6.119218 0.000000 0.000000 -0.000000 1.899094 -3.206703 3.310973 -16.412984 11.639308 -8.182100 -0.000000 0.000000 -0.000000 15.521081 -11.756547 -32.200102 0.256434 14.349769 30.991874 114.905921 0.417600 -143.778657 0.000000 0.000000 -0.000000 0.000000 0.000000 -0.000000 0.000000 0.000000 -0.000000 16.720509 -4.983021 -15.272201 -28.955447 13.788696 43.524576 17.463580 -15.490262 -14.696361 -0.000000 0.000000 -0.000000 -0.000000 0.000000 -0.000000 -0.000000 0.000000 -0.000000
0.208667 -0.372234 3.826736 0.000000 0.000000 0.000000 -6.515427 1.779133 9.388527 3.700018 0.579557 -2.342189 2.146317 -2.164310 -45.511560 -0.000000 0.000000 -0.000000 -16.804722 -13.638028 4.536544 -20.789589 -5.767604 -5.300376 0.000000 0.000000 0.000000 -4.050203 -4.639237 2.338432 -10.934654 10.487838 -8.128329 0.000000 0.000000 0.000000 16.670145 -11.699339 -27.536631 0.906425 15.452107 30.092742 114.942585 1.000825 -140.024540 -0.000000 0.000000 0.000000 -0.000000 0.000000 0.000000 -0.000000 0.000000 0.000000 11.943642 -8.179168 -23.973461 -22.068266 13.156912 46.414472 24.686196 -6.209629 -23.368874 -0.000000 0.000000 -0.000000 -0.000000 0.000000 -0.000000 -0.000000 0.000000 -0.000000
